<svg width="420" height="497" viewBox="0 0 420 497" fill="none" xmlns="http://www.w3.org/2000/svg">
<path d="M149.475 360.735L101.168 302.838C100.247 301.733 99.7373 300.335 99.7373 298.905V229.207C99.7373 226.281 101.807 223.757 104.689 223.182L149.475 214.263V360.735ZM149.475 168.818L104.689 159.899C101.807 159.325 99.7373 156.801 99.7373 153.874V73.774C99.7373 70.382 102.489 67.63 105.881 67.63H149.475V168.818ZM323.264 180.542L364.376 172.35C367.248 171.775 369.317 169.251 369.317 166.325V56.1447C369.317 52.7527 366.564 49.9994 363.173 49.9994H220.115V110.779L220.124 231.643C216.729 231.017 213.235 230.674 209.659 230.674C206.085 230.674 202.595 231.017 199.201 231.641V49.9994H56.144C52.752 49.9994 50 52.7527 50 56.1447V166.325C50 169.251 52.0693 171.775 54.952 172.35L99.7373 181.269L149.247 191.118C149.713 191.215 149.713 191.877 149.247 191.963L99.7373 201.825L54.952 210.742C52.0693 211.317 50 213.842 50 216.767V271.273C50 272.703 50.5093 274.101 51.4293 275.206L99.7373 333.093L149.475 392.702L198.117 450.989C198.487 451.433 199.201 451.173 199.201 450.598V344.595C202.595 345.219 206.085 345.563 209.659 345.563C213.235 345.563 216.729 345.219 220.127 344.594V450.598C220.127 451.173 220.852 451.433 221.22 450.989L269.853 392.702L319.591 333.093L367.897 275.217C368.819 274.111 369.317 272.714 369.317 271.283V216.767C369.317 213.842 367.248 211.317 364.376 210.742L323.264 202.561C321.368 202.182 319.591 203.634 319.591 205.574V298.905C319.591 300.335 319.092 301.733 318.171 302.838L269.853 360.735V67.63H313.447C316.837 67.63 319.591 70.382 319.591 73.774V177.53C319.591 179.459 321.368 180.922 323.264 180.542Z" fill="#010101"/>
<path d="M176.165 260.117C170.007 267.434 166.192 276.793 165.901 287.03V287.044L169.657 289.99C172.253 284.28 174.909 279.098 177.675 275.017C178.339 269.741 179.461 264.634 181.164 259.756L176.165 260.117Z" fill="url(#paint0_linear_407_192)"/>
<path d="M172.459 311.423C177.867 320.127 186.247 326.78 196.172 329.98C197.621 329.015 199.287 327.71 201.111 326.224C196.764 322.216 192.744 317.99 189.073 313.547C183.929 311.374 178.943 308.754 174.088 305.747L172.459 311.423Z" fill="url(#paint1_linear_407_192)"/>
<path d="M191.813 279.208C193.684 286.479 195.907 293.565 198.491 300.471H220.828C223.412 293.565 225.633 286.479 227.505 279.208C222.361 275.043 216.397 270.817 209.659 266.265C202.921 270.817 196.957 275.043 191.813 279.208Z" fill="url(#paint2_linear_407_192)"/>
<path d="M230.245 313.547C226.575 317.99 222.553 322.216 218.208 326.224C220.032 327.71 221.697 329.015 223.145 329.98C233.071 326.78 241.451 320.127 246.86 311.423L245.231 305.747C240.376 308.754 235.389 311.374 230.245 313.547Z" fill="url(#paint3_linear_407_192)"/>
<path d="M241.644 275.017C244.408 279.098 247.065 284.28 249.661 289.99L253.417 287.044V287.03C253.127 276.793 249.312 267.434 243.153 260.117L238.153 259.756C239.857 264.634 240.98 269.741 241.644 275.017Z" fill="url(#paint4_linear_407_192)"/>
<path d="M195.979 246.729L193.903 251.063C199.396 251.233 204.649 251.835 209.659 252.863C214.669 251.835 219.923 251.233 225.416 251.063L223.339 246.729C219.04 245.305 214.441 244.543 209.659 244.543C204.877 244.543 200.277 245.305 195.979 246.729Z" fill="url(#paint5_linear_407_192)"/>
<defs>
<linearGradient id="paint0_linear_407_192" x1="165.902" y1="274.873" x2="181.164" y2="274.873" gradientUnits="userSpaceOnUse">
<stop stop-color="#F5DC90"/>
<stop offset="1" stop-color="#8C643B"/>
</linearGradient>
<linearGradient id="paint1_linear_407_192" x1="172.459" y1="317.864" x2="201.111" y2="317.864" gradientUnits="userSpaceOnUse">
<stop stop-color="#F5DC90"/>
<stop offset="1" stop-color="#8C643B"/>
</linearGradient>
<linearGradient id="paint2_linear_407_192" x1="159.772" y1="331.734" x2="241.657" y2="258.038" gradientUnits="userSpaceOnUse">
<stop stop-color="#F5DC90"/>
<stop offset="1" stop-color="#8C643B"/>
</linearGradient>
<linearGradient id="paint3_linear_407_192" x1="218.208" y1="317.864" x2="246.86" y2="317.864" gradientUnits="userSpaceOnUse">
<stop stop-color="#F5DC90"/>
<stop offset="1" stop-color="#8C643B"/>
</linearGradient>
<linearGradient id="paint4_linear_407_192" x1="238.154" y1="274.873" x2="253.416" y2="274.873" gradientUnits="userSpaceOnUse">
<stop stop-color="#F5DC90"/>
<stop offset="1" stop-color="#8C643B"/>
</linearGradient>
<linearGradient id="paint5_linear_407_192" x1="193.902" y1="248.703" x2="225.416" y2="248.703" gradientUnits="userSpaceOnUse">
<stop stop-color="#F5DC90"/>
<stop offset="1" stop-color="#8C643B"/>
</linearGradient>
</defs>
</svg>
