<?xml version="1.0" encoding="utf-8"?>
<!-- Generator: Adobe Illustrator 23.0.1, SVG Export Plug-In . SVG Version: 6.00 Build 0)  -->
<!DOCTYPE svg PUBLIC "-//W3C//DTD SVG 1.1//EN" "http://www.w3.org/Graphics/SVG/1.1/DTD/svg11.dtd" [
	<!ENTITY ns_extend "http://ns.adobe.com/Extensibility/1.0/">
	<!ENTITY ns_ai "http://ns.adobe.com/AdobeIllustrator/10.0/">
	<!ENTITY ns_graphs "http://ns.adobe.com/Graphs/1.0/">
	<!ENTITY ns_vars "http://ns.adobe.com/Variables/1.0/">
	<!ENTITY ns_imrep "http://ns.adobe.com/ImageReplacement/1.0/">
	<!ENTITY ns_sfw "http://ns.adobe.com/SaveForWeb/1.0/">
	<!ENTITY ns_custom "http://ns.adobe.com/GenericCustomNamespace/1.0/">
	<!ENTITY ns_adobe_xpath "http://ns.adobe.com/XPath/1.0/">
]>
<svg version="1.1" id="Livello_1" xmlns:x="&ns_extend;" xmlns:i="&ns_ai;" xmlns:graph="&ns_graphs;"
	 xmlns="http://www.w3.org/2000/svg" xmlns:xlink="http://www.w3.org/1999/xlink" x="0px" y="0px" viewBox="0 0 6017.4 702.4"
	 enable-background="new 0 0 6017.4 702.4" xml:space="preserve">
<metadata>
	<sfw  xmlns="&ns_sfw;">
		<slices></slices>
		<sliceSourceBounds  bottomLeftOrigin="true" height="702.4" width="6017.5" x="0" y="0"></sliceSourceBounds>
	</sfw>
</metadata>
<g>
	<rect x="759.8" y="379.2" fill="#0050FF" width="224.8" height="53.5"/>
	<g>
		<path fill="#0050FF" d="M1443.2,578.2l-1.8-3.6c-36.6,53.5-91,83-153.5,83c-132.9,0-183.8-126.7-183.8-239.1
			c0-116,50.8-235.6,183.8-235.6c59.8,0,122.2,28.6,153.5,81.2l1.8-1.8V0h53.5v543.4c0,34.8,2.7,70.5,4.5,100.8h-55.3L1443.2,578.2z
			 M1296.9,232c-101.7,0-134.7,94.6-134.7,180.2c0,83,24.1,196.3,126.7,196.3c116.9,0,152.6-97.2,152.6-199
			C1441.5,318.5,1401.3,232,1296.9,232"/>
		<path fill="#0050FF" d="M1689.5,66.9h-62.4V0h62.4V66.9z M1685,644.2h-53.5V196.3h53.5V644.2z"/>
		<path fill="#0050FF" d="M1977.7,182.9c84.8,0,156.1,29.5,163.3,124h-58c-5.4-56.2-55.3-74.9-110.6-74.9
			c-49.9,0-100.8,19.6-100.8,72.3c0,66,86.5,59.8,207.9,102.6c46.4,16.1,75.9,56.2,75.9,104.4c0,100.8-93.7,146.3-188.3,146.3
			c-77.6,0-166.8-36.6-168.6-135.6h58c4.5,66.9,63.4,86.5,124,86.5c57.1,0,116.9-26.8,116.9-89.2c0-64.2-70.5-74.9-141.8-91
			c-70.5-16.9-141.9-37.5-141.9-120.4C1813.5,215,1899.2,182.9,1977.7,182.9"/>
		<path fill="#0050FF" d="M2313.1,245.4h-89.2v-49.1h89.2v-95.4l53.5-23.2v118.7h101.7v49.1h-101.7v299.8
			c-0.9,41,20.5,63.3,61.6,63.3c16.1,0,32.1-0.9,46.4-5.4v46.4c-17,4.5-36.6,8.1-54.4,8.1c-113.3,0-107.1-72.3-107.1-132.9V245.4z"
			/>
		<path fill="#0050FF" d="M2625.4,644.2h-53.5V297.1c0.9-34.8-2.7-70.5-4.5-100.8h55.3l2.7,66h1.8c16.1-45.5,56.2-77.6,100.8-79.4
			c17.8-0.9,35.7,0,53.5,0.9v51.8c-10.7-0.9-22.3-3.6-33-3.6c-79.4,0-121.4,57.1-123.1,142.8V644.2z"/>
		<path fill="#0050FF" d="M2927.9,66.9h-62.4V0h62.4V66.9z M2923.4,644.2h-53.5V196.3h53.5V644.2z"/>
		<path fill="#0050FF" d="M3109,644.2h-55.3c1.8-30.3,4.5-66,4.5-100.8V0h53.5v262.3l1.8,1.8c31.2-52.6,93.7-81.2,153.5-81.2
			c132.9,0,183.8,119.6,183.8,235.5c0,112.4-50.9,239.1-181.1,239.1c-65.1,0-119.5-29.5-156.1-83l-1.8,3.6L3109,644.2z
			 M3111.6,411.3c0,101.7,35.7,197.2,152.6,197.2c102.6,0,128.5-111.5,128.5-194.5c0-85.6-34.8-182-136.5-182
			C3151.8,232,3111.6,320.3,3111.6,411.3"/>
		<path fill="#0050FF" d="M3862.9,196.3h53.5v347.1c0,34.8,2.7,70.5,4.5,100.8h-55.3l-2.7-66l-1.8-1.8
			c-31.2,55.3-82.1,81.2-140.1,81.2c-146.3,0-157.9-129.3-157.9-181.1V196.3h53.5v289.1c0,77.6,44.6,123.1,117.8,123.1
			c88.3,0,128.5-74.1,128.5-154.4V196.3z"/>
		<polygon fill="#0050FF" points="4023.5,595.1 4284.9,245.4 4023.5,245.4 4023.5,196.3 4348.2,196.3 4348.2,245.4 4088.6,595.1 
			4348.2,595.1 4348.2,644.2 4023.5,644.2 		"/>
		<path fill="#0050FF" d="M4514.2,66.9h-62.4V0h62.4V66.9z M4509.7,644.2h-53.5V196.3h53.5V644.2z"/>
		<path fill="#0050FF" d="M5038.8,420.2c0,117.8-66,237.3-208.8,237.3S4621.2,538,4621.2,420.2s66-237.4,208.8-237.4
			C4972.7,182.9,5038.8,302.5,5038.8,420.2 M4830,232c-107.9,0-150.8,105.3-150.8,188.3S4722,608.5,4830,608.5
			c107.9,0,150.8-105.3,150.8-188.2C4980.8,337.3,4937.9,232,4830,232"/>
		<path fill="#0050FF" d="M5202.9,644.2h-53.5V297.1c0-34.8-2.7-70.5-4.5-100.8h55.3l2.7,66l1.8,1.8c31.2-55.3,82.1-81.2,140.1-81.2
			c146.3,0,157.9,129.3,157.9,181.1v280.1h-53.5v-289c0-77.6-44.6-123.1-117.8-123.1c-88.3,0-128.5,74.1-128.5,154.4V644.2z"/>
		<path fill="#0050FF" d="M5671.2,432.7c1.8,95.4,45.5,175.7,155.3,175.7c63.3,0,116-45.5,129.4-107.1h56.2
			c-27.7,107.1-94.6,156.1-202.5,156.1c-133.8,0-196.3-115.1-196.3-237.3c0-121.4,66.9-237.4,199.9-237.4
			c149.9,0,204.3,109.7,204.3,249.8h-346.3V432.7z M5959.4,383.7c-6.2-86.5-52.6-151.7-145.4-151.7c-87.4,0-133.8,73.2-141,151.7
			H5959.4z"/>
	</g>
	<g>
		
			<linearGradient id="SVGID_2_" gradientUnits="userSpaceOnUse" x1="3257.99" y1="1254.0808" x2="3288.6118" y2="1254.0808" gradientTransform="matrix(2.2279 4.2532 -4.2532 2.2279 -1424.2496 -16445.6523)">
			<stop  offset="0" style="stop-color:#E41F13"/>
			<stop  offset="1" style="stop-color:#E30613"/>
		</linearGradient>
		<path fill="url(#SVGID_2_)" d="M524.8,173.8l-64.5,65.6c28.1,27.4,48.7,62.3,58.5,101.3h94l0,0C601.6,275.9,570,217.9,524.8,173.8
			z"/>
		
			<linearGradient id="SVGID_3_" gradientUnits="userSpaceOnUse" x1="3065.2788" y1="884.0183" x2="3095.9006" y2="884.0183" gradientTransform="matrix(5.9892 2.5751 -2.5751 5.9892 -15770.0811 -13068.2441)">
			<stop  offset="0" style="stop-color:#E42313"/>
			<stop  offset="1" style="stop-color:#E41F13"/>
		</linearGradient>
		<path fill="url(#SVGID_3_)" d="M308.5,85.5c-0.9,0-1.8,0-2.7,0l0.8,92c0.6,0,1.3,0,1.9,0c59.7,0,113.9,24.1,153.2,63.2l65.1-65.1
			C470.7,119.9,393.5,85.5,308.5,85.5z"/>
		
			<linearGradient id="SVGID_4_" gradientUnits="userSpaceOnUse" x1="3971.5344" y1="858.2781" x2="4002.1562" y2="858.2781" gradientTransform="matrix(-5.9603 2.7487 -2.7487 -5.9603 26335.1504 -5683.1934)">
			<stop  offset="0" style="stop-color:#E42313"/>
			<stop  offset="1" style="stop-color:#E52D12"/>
		</linearGradient>
		<path fill="url(#SVGID_4_)" d="M308.5,85.5L308.5,85.5c-86.1,0-164,35.3-220,92.3l65.7,64.5c39.3-40,93.9-64.7,154.3-64.7V85.5
			L308.5,85.5z"/>
		
			<linearGradient id="SVGID_5_" gradientUnits="userSpaceOnUse" x1="3755.0249" y1="1151.4625" x2="3785.647" y2="1151.4625" gradientTransform="matrix(-2.4883 5.8735 -5.8735 -2.4883 16219.3311 -18983.5742)">
			<stop  offset="0" style="stop-color:#E52D12"/>
			<stop  offset="1" style="stop-color:#E74018"/>
		</linearGradient>
		<path fill="url(#SVGID_5_)" d="M90.4,175.8C34.5,231.7,0,308.7,0,393.9c0,0.9,0,1.8,0,2.7l92.1-0.8c0-0.6,0-1.3,0-1.9
			c0-59.8,24.2-113.9,63.4-153L90.4,175.8z"/>
		
			<linearGradient id="SVGID_6_" gradientUnits="userSpaceOnUse" x1="3366.6179" y1="1173.7625" x2="3397.2397" y2="1173.7625" gradientTransform="matrix(2.604 6.1917 -6.1917 2.604 -1464.1313 -23502.7246)">
			<stop  offset="0" style="stop-color:#E74018"/>
			<stop  offset="1" style="stop-color:#E84617"/>
		</linearGradient>
		<path fill="url(#SVGID_6_)" d="M92.3,613.9l64.5-65.7C116.8,509,92,454.3,92,393.9H0l0,0C0,480,35.3,557.9,92.3,613.9z"/>
		
			<linearGradient id="SVGID_7_" gradientUnits="userSpaceOnUse" x1="3054.4585" y1="948.0464" x2="3085.0803" y2="948.0464" gradientTransform="matrix(6.0181 2.3725 -2.3725 6.0181 -16013.6113 -12360.3828)">
			<stop  offset="0" style="stop-color:#E84617"/>
			<stop  offset="1" style="stop-color:#EA561F"/>
		</linearGradient>
		<path fill="url(#SVGID_7_)" d="M308.5,702.4c0.9,0,1.8,0,2.7,0l-0.8-92.1c-0.6,0-1.3,0-1.9,0c-59.8,0-113.9-24.2-153-63.4
			L90.4,612C146.2,667.8,223.3,702.4,308.5,702.4z"/>
		<defs>
			<filter id="Adobe_OpacityMaskFilter" filterUnits="userSpaceOnUse" x="308.5" y="525.7" width="244.6" height="176.7">
				<feColorMatrix  type="matrix" values="1 0 0 0 0  0 1 0 0 0  0 0 1 0 0  0 0 0 1 0"/>
			</filter>
		</defs>
		<mask maskUnits="userSpaceOnUse" x="308.5" y="525.7" width="244.6" height="176.7" id="SVGID_1_">
			<g filter="url(#Adobe_OpacityMaskFilter)">
				<g>
					<g>
						<defs>
							
								<rect id="SVGID_8_" x="281.9" y="464.9" transform="matrix(0.7045 -0.7097 0.7097 0.7045 -308.4588 487.1465)" width="297.8" height="298.1"/>
						</defs>
						<clipPath id="SVGID_9_">
							<use xlink:href="#SVGID_8_"  overflow="visible"/>
						</clipPath>
						
							<linearGradient id="SVGID_10_" gradientUnits="userSpaceOnUse" x1="3156.6736" y1="439.0432" x2="3187.2954" y2="439.0432" gradientTransform="matrix(5.4755 -5.5164 5.5164 5.4755 -19378.6699 15727.4297)">
							<stop  offset="0" style="stop-color:#FFFFFF"/>
							<stop  offset="0.27" style="stop-color:#FFFFFF"/>
							<stop  offset="0.3333" style="stop-color:#F4F4F4"/>
							<stop  offset="0.4459" style="stop-color:#D5D5D5"/>
							<stop  offset="0.5948" style="stop-color:#A4A4A4"/>
							<stop  offset="0.7742" style="stop-color:#606060"/>
							<stop  offset="0.9775" style="stop-color:#0A0A0A"/>
							<stop  offset="1" style="stop-color:#000000"/>
						</linearGradient>
						<polygon clip-path="url(#SVGID_9_)" fill="url(#SVGID_10_)" points="9.4,615.6 429.2,192.6 852.2,612.4 432.4,1035.4 						
							"/>
					</g>
				</g>
			</g>
		</mask>
		
			<linearGradient id="SVGID_11_" gradientUnits="userSpaceOnUse" x1="3156.6736" y1="437.5762" x2="3187.2954" y2="437.5762" gradientTransform="matrix(5.4755 -5.5164 5.5164 5.4755 -19378.6719 15727.4277)">
			<stop  offset="0" style="stop-color:#EA561F"/>
			<stop  offset="0.27" style="stop-color:#EA561F"/>
			<stop  offset="1" style="stop-color:#E9531E"/>
		</linearGradient>
		<path mask="url(#SVGID_1_)" fill="url(#SVGID_11_)" d="M553.1,581.7l-73-56c-39.5,51.5-101.7,84.7-171.6,84.7v92
			C408.1,702.4,496.8,655,553.1,581.7z"/>
		<path fill="#E30613" d="M518.9,340.7H290.8v92H613v-92c-0.2-0.9-0.3-1.7-0.5-2.6h-94.2C518.4,339,518.6,339.9,518.9,340.7"/>
	</g>
</g>
</svg>
